<?xml version="1.0" standalone="no"?>
<!DOCTYPE svg PUBLIC "-//W3C//DTD SVG 20010904//EN"
 "http://www.w3.org/TR/2001/REC-SVG-20010904/DTD/svg10.dtd">
<svg version="1.0" xmlns="http://www.w3.org/2000/svg"
 width="300.000000pt" height="340.000000pt" viewBox="0 0 300.000000 340.000000"
 preserveAspectRatio="xMidYMid meet">
<metadata>
Created by potrace 1.10, written by Peter Selinger 2001-2011
</metadata>
<g transform="translate(0.000000,340.000000) scale(0.100000,-0.100000)"
fill="#000000" stroke="none">
<path d="M923 3325 c-62 -26 -69 -82 -21 -165 17 -30 44 -77 60 -105 47 -82
215 -433 248 -515 10 -25 44 -99 75 -165 31 -66 66 -139 77 -163 13 -27 28
-44 44 -48 13 -3 24 -12 24 -20 0 -8 -21 -58 -46 -111 -25 -54 -51 -109 -56
-123 -6 -14 -14 -34 -19 -45 -5 -11 -18 -45 -29 -75 -11 -30 -25 -64 -30 -75
-27 -60 -122 -292 -150 -365 -17 -47 -35 -89 -39 -95 -9 -13 -44 -105 -48
-126 -3 -21 33 -59 56 -59 27 0 54 38 91 125 37 90 72 168 80 175 3 3 19 37
35 75 15 39 47 111 70 160 23 50 42 94 43 99 0 5 4 12 9 15 12 8 91 163 148
291 26 58 62 137 80 175 18 39 40 88 50 110 30 67 129 245 137 245 4 0 17 -15
30 -32 12 -18 30 -41 38 -50 9 -10 34 -51 55 -93 22 -41 43 -75 47 -75 3 0 10
-10 13 -21 4 -12 31 -56 59 -98 57 -83 136 -213 136 -223 0 -7 -172 -122 -240
-160 -127 -72 -148 -84 -180 -105 -19 -13 -44 -30 -55 -38 -30 -23 -35 -18
-29 28 6 39 3 46 -26 75 -35 35 -43 37 -88 21 -50 -17 -103 -103 -162 -259
-26 -69 -41 -93 -77 -124 -59 -51 -66 -72 -41 -114 18 -29 19 -36 7 -65 -8
-18 -15 -36 -16 -42 -9 -39 -129 -381 -166 -475 -57 -145 -168 -430 -192 -492
-21 -57 -14 -94 20 -110 32 -14 60 8 86 70 21 49 180 455 216 551 13 34 48
115 77 180 87 188 102 224 116 266 22 68 82 175 109 194 14 10 64 38 111 62
74 37 120 64 205 116 106 66 189 115 235 140 135 73 173 98 220 143 32 31 50
57 50 71 0 19 -287 612 -312 644 -5 6 -28 38 -52 72 -25 34 -61 72 -80 86 -27
18 -33 26 -24 35 7 7 9 12 4 12 -4 0 6 24 22 53 36 65 59 135 54 164 -4 27
-56 73 -83 73 -11 0 -30 -5 -42 -12 -37 -19 -38 -21 -124 -208 -19 -41 -63
-136 -98 -210 -34 -74 -79 -173 -101 -220 -21 -47 -42 -91 -47 -97 -20 -27
-19 -27 -83 147 -19 52 -51 133 -70 180 -42 101 -47 114 -114 300 -59 163
-139 333 -182 384 -36 44 -74 58 -115 41z m74 -47 c55 -60 135 -233 228 -493
23 -67 70 -190 104 -274 33 -84 61 -157 61 -162 0 -4 14 -38 30 -74 17 -37 28
-71 25 -76 -15 -23 -38 -5 -58 44 -12 28 -43 97 -70 152 -27 55 -62 132 -77
170 -49 121 -215 456 -279 562 -33 56 -61 111 -61 122 0 49 62 67 97 29z m931
-304 c41 -29 32 -54 -145 -390 -72 -138 -175 -347 -228 -465 -53 -118 -128
-272 -165 -344 -38 -71 -93 -186 -123 -255 -173 -395 -200 -445 -221 -412 -5
9 4 35 55 150 11 23 33 77 48 120 16 42 50 124 76 182 26 58 63 148 82 200 20
52 88 210 151 350 63 140 126 280 139 310 13 30 64 141 112 245 49 105 99 214
112 243 22 51 50 82 74 82 6 0 21 -7 33 -16z m2 -336 c52 -56 122 -177 240
-417 71 -143 139 -274 151 -290 19 -26 21 -35 11 -55 -16 -35 -97 -93 -247
-177 -71 -40 -175 -100 -230 -134 -55 -34 -158 -93 -228 -131 -147 -79 -137
-65 -232 -294 -29 -69 -80 -186 -113 -260 -33 -74 -115 -278 -183 -452 -97
-249 -128 -318 -141 -318 -26 0 -23 17 26 142 164 416 234 602 278 737 27 85
65 190 83 234 27 63 30 77 17 72 -72 -31 -80 12 -11 59 50 33 54 39 95 146 83
219 158 296 204 209 9 -16 5 -33 -19 -85 -17 -36 -40 -79 -52 -95 -12 -17 -19
-32 -17 -34 2 -2 38 21 78 51 99 73 187 131 287 187 62 36 304 187 321 202 2
1 -24 42 -56 91 -85 128 -192 299 -235 374 -21 36 -58 93 -82 128 -51 71 -53
84 -25 112 26 26 54 25 80 -2z"/>
</g>
</svg>
