<?xml version="1.0" standalone="no"?>
<!DOCTYPE svg PUBLIC "-//W3C//DTD SVG 20010904//EN"
 "http://www.w3.org/TR/2001/REC-SVG-20010904/DTD/svg10.dtd">
<svg version="1.0" xmlns="http://www.w3.org/2000/svg"
 width="1668.000000pt" height="1889.000000pt" viewBox="0 0 1668.000000 1889.000000"
 preserveAspectRatio="xMidYMid meet">
<metadata>
Created by potrace 1.16, written by Peter Selinger 2001-2019
</metadata>
<g transform="translate(0.000000,1889.000000) scale(0.100000,-0.100000)"
fill="#000000" stroke="none">
<path d="M0 9445 l0 -9445 8340 0 8340 0 0 9445 0 9445 -8340 0 -8340 0 0
-9445z m5423 8860 c12 -8 28 -15 37 -15 20 -1 68 -51 115 -120 20 -30 43 -59
49 -65 7 -5 25 -32 41 -60 16 -27 32 -52 35 -55 4 -3 22 -31 41 -64 19 -32 44
-75 56 -95 12 -20 29 -49 38 -66 9 -16 34 -61 56 -100 22 -38 47 -83 55 -100
8 -16 26 -48 39 -70 14 -22 29 -51 35 -65 5 -14 15 -32 20 -40 6 -8 15 -26 20
-40 6 -14 18 -41 27 -60 8 -19 25 -55 36 -80 10 -25 28 -62 38 -82 11 -20 19
-46 19 -56 0 -11 6 -25 14 -31 8 -7 17 -30 21 -51 4 -21 13 -44 21 -51 8 -6
14 -20 14 -32 0 -11 8 -34 19 -51 10 -17 21 -47 25 -67 4 -21 13 -42 21 -49 8
-7 15 -23 15 -36 0 -13 9 -41 20 -61 11 -21 20 -45 20 -54 0 -9 7 -22 15 -29
8 -7 17 -27 21 -46 3 -18 12 -38 20 -45 8 -6 14 -19 14 -28 0 -15 18 -58 61
-143 11 -20 19 -46 19 -56 0 -11 6 -25 14 -31 8 -7 18 -27 21 -44 4 -18 13
-41 19 -52 7 -11 16 -38 20 -59 4 -22 14 -49 22 -60 8 -11 14 -32 14 -46 0
-14 9 -38 20 -55 11 -16 20 -43 20 -59 0 -16 7 -37 15 -46 9 -10 19 -35 22
-56 3 -22 12 -46 19 -55 8 -8 18 -37 23 -62 4 -26 13 -53 19 -60 6 -7 14 -32
18 -55 3 -23 13 -47 20 -53 8 -6 14 -23 14 -38 0 -14 9 -43 20 -64 11 -20 20
-47 20 -59 0 -13 9 -36 20 -53 11 -16 20 -39 20 -50 0 -12 9 -38 20 -60 11
-22 20 -50 20 -63 0 -13 6 -30 14 -37 7 -8 17 -34 20 -59 4 -24 14 -50 21 -56
8 -7 15 -27 15 -44 0 -17 9 -44 20 -61 11 -16 20 -38 20 -48 0 -9 9 -34 20
-54 11 -21 20 -46 20 -56 0 -10 9 -30 20 -44 11 -14 20 -34 20 -43 0 -10 6
-23 14 -29 8 -7 17 -30 21 -51 4 -21 13 -44 21 -51 8 -6 14 -20 14 -31 0 -10
9 -37 20 -59 11 -21 29 -57 40 -78 11 -22 20 -51 20 -64 0 -14 6 -30 14 -36 8
-7 18 -25 21 -41 3 -16 13 -34 21 -41 8 -6 14 -21 14 -33 0 -11 9 -36 20 -54
11 -18 20 -42 20 -53 0 -12 9 -32 20 -46 11 -14 20 -32 20 -39 0 -8 9 -31 20
-51 11 -21 20 -50 20 -64 0 -15 6 -32 14 -38 8 -6 17 -32 21 -58 4 -25 13 -52
20 -60 8 -7 17 -33 20 -58 4 -24 13 -50 21 -56 8 -6 14 -23 14 -38 0 -14 9
-41 20 -59 11 -18 20 -41 20 -52 0 -11 9 -37 20 -57 11 -21 20 -47 20 -59 0
-12 7 -27 15 -34 8 -7 18 -34 21 -61 4 -27 13 -54 20 -60 8 -6 14 -26 14 -43
0 -17 9 -44 20 -61 11 -16 20 -36 20 -43 0 -8 9 -25 20 -39 11 -14 20 -34 20
-44 0 -11 9 -36 20 -56 11 -21 20 -43 20 -50 0 -7 9 -30 20 -50 11 -21 20 -43
20 -49 0 -7 6 -14 14 -17 7 -3 17 -26 20 -50 4 -25 14 -51 21 -57 8 -7 15 -21
15 -32 0 -10 8 -36 19 -56 56 -111 56 -111 38 -142 -9 -15 -17 -35 -17 -43 0
-8 -7 -18 -16 -21 -20 -8 -102 -8 -131 0 -23 6 -63 75 -63 108 0 10 -9 29 -20
43 -11 14 -20 33 -20 42 0 10 -5 22 -11 28 -12 12 -44 94 -59 151 -4 19 -15
41 -24 51 -9 10 -16 25 -16 34 0 8 -6 22 -13 29 -8 7 -17 26 -21 43 -4 16 -16
48 -27 72 -10 23 -19 48 -19 56 0 8 -6 20 -14 26 -8 7 -18 26 -21 42 -4 17
-13 33 -21 36 -8 3 -14 15 -14 28 0 12 -9 30 -20 40 -11 10 -20 27 -20 37 0
11 -9 31 -20 45 -11 14 -20 34 -20 43 0 10 -6 23 -14 29 -8 7 -18 25 -21 41
-3 16 -13 34 -21 41 -8 6 -14 19 -14 29 0 9 -9 29 -20 43 -11 14 -20 32 -20
40 0 7 -9 22 -20 32 -11 10 -20 28 -20 40 0 12 -9 30 -20 40 -11 10 -20 28
-20 40 0 13 -6 28 -14 34 -8 7 -18 25 -21 41 -3 16 -13 34 -21 41 -8 6 -14 18
-14 25 0 8 -9 31 -20 51 -11 21 -20 45 -20 53 0 8 -9 30 -20 48 -11 18 -20 41
-20 51 0 10 -7 24 -15 31 -8 7 -19 26 -24 44 -23 72 -49 138 -60 149 -6 6 -11
18 -11 27 0 8 -8 27 -17 40 -10 14 -23 43 -30 65 -22 76 -45 135 -54 135 -4 0
-11 16 -15 35 -3 19 -12 39 -20 46 -8 6 -14 21 -14 32 0 11 -8 38 -19 61 -10
23 -24 52 -30 66 -6 14 -15 32 -20 40 -5 8 -14 26 -20 40 -6 14 -15 32 -20 40
-5 8 -12 22 -15 30 -3 8 -10 22 -16 30 -5 8 -14 26 -20 40 -5 14 -14 32 -19
40 -5 8 -14 26 -20 40 -6 14 -15 32 -20 40 -5 8 -14 26 -20 40 -6 14 -15 32
-20 40 -5 8 -14 26 -20 40 -6 14 -15 32 -20 40 -4 8 -24 49 -44 90 -34 72
-147 307 -311 641 -42 86 -76 163 -76 172 0 8 -7 20 -15 27 -8 7 -15 19 -15
26 0 7 -9 35 -21 61 -12 27 -30 68 -41 93 -11 25 -26 59 -33 75 -31 74 -140
292 -157 314 -10 13 -18 31 -18 41 0 9 -9 25 -20 35 -11 10 -20 26 -20 36 0
10 -5 21 -11 25 -6 3 -18 23 -26 42 -8 20 -28 55 -44 79 -16 23 -29 46 -29 52
0 6 -8 18 -19 28 -10 10 -22 29 -26 42 -4 13 -19 42 -35 65 -61 92 -80 122
-80 128 0 6 -103 192 -147 266 -12 20 -29 51 -38 67 -9 17 -27 48 -40 70 -14
22 -29 50 -35 62 -5 11 -13 24 -19 27 -9 6 -24 30 -98 154 -63 106 -86 205
-69 295 15 79 125 191 205 208 52 11 169 1 194 -16z m5242 -1747 c94 -59 133
-113 155 -218 9 -40 9 -63 1 -83 -6 -16 -11 -43 -11 -60 0 -18 -9 -45 -20 -62
-11 -16 -20 -38 -20 -48 0 -9 -9 -34 -20 -54 -11 -21 -20 -46 -20 -55 0 -10
-9 -35 -20 -55 -11 -21 -20 -45 -20 -53 0 -9 -7 -25 -15 -36 -8 -10 -15 -27
-15 -37 0 -11 -9 -30 -20 -44 -11 -14 -20 -31 -20 -38 0 -6 -9 -22 -20 -35
-11 -13 -20 -31 -20 -40 0 -9 -9 -25 -20 -35 -11 -10 -20 -26 -20 -36 0 -10
-4 -20 -9 -24 -6 -3 -26 -38 -46 -78 -19 -39 -39 -79 -44 -87 -5 -8 -28 -55
-51 -105 -23 -49 -46 -97 -51 -105 -5 -8 -14 -26 -19 -40 -6 -14 -15 -32 -20
-40 -11 -17 -15 -24 -30 -60 -5 -14 -14 -32 -19 -40 -5 -8 -14 -26 -20 -40 -6
-14 -15 -32 -20 -40 -5 -8 -12 -22 -15 -30 -4 -8 -17 -33 -31 -55 -14 -22 -30
-52 -36 -67 -6 -16 -14 -28 -18 -28 -5 0 -15 -17 -24 -37 -9 -21 -31 -60 -48
-88 -18 -27 -43 -71 -56 -97 -13 -26 -28 -50 -33 -53 -6 -3 -10 -14 -10 -24 0
-10 -9 -26 -20 -36 -11 -10 -20 -27 -20 -37 0 -11 -9 -31 -20 -45 -11 -14 -20
-32 -20 -40 0 -8 -9 -26 -20 -40 -11 -14 -20 -34 -20 -43 0 -10 -6 -23 -14
-29 -8 -7 -18 -25 -21 -41 -3 -16 -13 -34 -21 -41 -8 -6 -14 -19 -14 -29 0 -9
-9 -25 -20 -35 -11 -10 -20 -28 -20 -40 0 -12 -9 -30 -20 -40 -11 -10 -20 -27
-20 -37 0 -11 -9 -31 -20 -45 -11 -14 -20 -34 -20 -43 0 -10 -6 -23 -14 -29
-8 -7 -18 -25 -21 -41 -3 -16 -12 -31 -19 -33 -8 -3 -16 -17 -20 -31 -3 -14
-19 -45 -35 -68 -16 -24 -44 -71 -62 -105 -19 -35 -44 -80 -56 -100 -13 -21
-27 -49 -33 -62 -6 -13 -24 -44 -40 -68 -17 -24 -30 -47 -30 -51 0 -3 -17 -42
-39 -87 -52 -107 -78 -165 -85 -192 -4 -11 -13 -27 -21 -33 -8 -7 -15 -21 -15
-32 0 -11 -9 -31 -20 -45 -11 -14 -20 -34 -20 -43 0 -10 -7 -23 -15 -30 -8 -7
-15 -17 -15 -22 0 -5 -12 -35 -26 -66 -14 -31 -35 -77 -46 -102 -11 -25 -26
-57 -34 -72 -8 -14 -14 -33 -14 -41 0 -8 -9 -26 -20 -40 -11 -14 -20 -33 -20
-42 0 -9 -9 -28 -20 -42 -11 -14 -20 -32 -20 -39 0 -13 -7 -28 -73 -163 -21
-40 -37 -80 -37 -88 0 -8 -9 -26 -20 -40 -11 -14 -20 -36 -20 -50 0 -13 -7
-26 -15 -29 -8 -3 -17 -21 -21 -40 -3 -18 -12 -38 -20 -45 -8 -6 -14 -19 -14
-28 0 -9 -9 -31 -20 -49 -11 -18 -20 -41 -20 -51 0 -10 -9 -30 -20 -44 -11
-14 -20 -33 -20 -42 0 -9 -9 -28 -20 -42 -11 -14 -20 -36 -20 -50 0 -13 -6
-26 -14 -29 -8 -3 -17 -20 -20 -39 -4 -18 -13 -38 -21 -45 -8 -7 -15 -19 -15
-27 0 -7 -11 -36 -25 -63 -14 -27 -25 -54 -25 -60 0 -6 -7 -18 -15 -26 -8 -9
-15 -25 -15 -36 0 -11 -9 -31 -20 -45 -11 -14 -20 -34 -20 -43 0 -10 -7 -23
-15 -30 -8 -7 -15 -17 -15 -23 0 -5 -9 -28 -19 -51 -67 -145 -87 -188 -113
-246 -16 -36 -36 -78 -43 -95 -22 -53 -35 -80 -44 -95 -5 -8 -14 -26 -20 -40
-6 -14 -15 -32 -20 -40 -5 -8 -30 -58 -55 -110 -26 -52 -51 -102 -56 -110 -6
-8 -15 -26 -20 -40 -6 -14 -21 -43 -34 -65 -26 -44 -72 -130 -130 -242 -20
-40 -41 -75 -47 -78 -5 -4 -9 -14 -9 -24 0 -10 -9 -26 -20 -36 -11 -10 -20
-26 -20 -35 0 -9 -9 -27 -20 -40 -11 -13 -20 -31 -20 -40 0 -9 -9 -27 -20 -40
-11 -13 -20 -31 -20 -40 0 -10 -7 -23 -15 -30 -8 -7 -15 -20 -15 -30 0 -9 -8
-28 -18 -41 -10 -13 -23 -35 -30 -49 -6 -14 -16 -32 -21 -40 -5 -8 -14 -26
-20 -40 -6 -14 -34 -65 -61 -115 -27 -49 -49 -97 -49 -106 -1 -9 -8 -22 -16
-29 -8 -7 -15 -25 -15 -40 0 -15 -9 -35 -20 -45 -11 -10 -20 -26 -20 -35 0 -9
-9 -27 -20 -40 -11 -13 -20 -31 -20 -42 0 -10 -9 -35 -20 -55 -11 -21 -20 -45
-20 -54 0 -9 -7 -22 -15 -29 -8 -7 -15 -23 -15 -35 0 -12 -9 -34 -20 -48 -11
-14 -20 -32 -20 -40 0 -8 -9 -26 -20 -40 -11 -14 -20 -34 -20 -44 0 -10 -9
-35 -20 -56 -11 -20 -20 -44 -20 -53 0 -9 -9 -27 -20 -41 -11 -14 -20 -34 -20
-43 0 -10 -7 -23 -15 -30 -8 -7 -15 -20 -15 -29 0 -9 -9 -33 -20 -54 -11 -20
-20 -45 -20 -56 0 -10 -9 -30 -20 -44 -11 -14 -20 -34 -20 -45 0 -10 -9 -27
-20 -37 -11 -10 -20 -28 -20 -41 0 -13 -4 -26 -10 -29 -5 -3 -17 -30 -26 -60
-8 -30 -20 -57 -25 -60 -5 -4 -9 -16 -9 -29 0 -13 -9 -31 -20 -41 -11 -10 -20
-28 -20 -40 0 -12 -9 -30 -20 -40 -11 -10 -20 -28 -20 -40 0 -12 -9 -30 -20
-40 -11 -10 -20 -28 -20 -39 0 -12 -9 -29 -20 -39 -11 -9 -20 -25 -20 -36 0
-10 -7 -24 -15 -31 -8 -7 -15 -22 -15 -35 0 -12 -9 -30 -20 -40 -11 -10 -20
-28 -20 -40 0 -12 -9 -30 -20 -40 -11 -10 -20 -28 -20 -40 0 -12 -9 -30 -20
-40 -11 -10 -20 -26 -20 -35 0 -10 -7 -23 -15 -30 -8 -7 -17 -28 -21 -49 -4
-20 -13 -45 -20 -56 -8 -11 -14 -29 -14 -41 0 -12 -9 -33 -20 -47 -11 -14 -20
-32 -20 -40 0 -7 -9 -24 -20 -37 -11 -13 -20 -31 -20 -42 0 -10 -9 -35 -20
-55 -11 -21 -20 -47 -20 -59 0 -12 -7 -27 -15 -34 -8 -7 -15 -20 -15 -30 0 -9
-9 -29 -20 -43 -11 -14 -20 -31 -20 -39 0 -7 -9 -28 -20 -46 -11 -18 -20 -44
-20 -58 0 -14 -9 -37 -20 -51 -11 -14 -20 -32 -20 -40 0 -8 -9 -26 -20 -40
-11 -14 -20 -33 -20 -42 0 -9 -7 -24 -15 -34 -7 -11 -16 -36 -20 -57 -4 -22
-13 -44 -21 -51 -8 -6 -14 -22 -14 -35 0 -29 -63 -74 -104 -74 -38 0 -95 38
-102 68 -12 45 4 108 53 212 28 58 60 132 73 165 13 33 40 95 62 139 21 43 38
85 38 92 0 8 4 22 9 32 24 44 99 213 120 267 12 33 40 97 62 142 21 46 39 89
39 97 0 8 4 17 9 21 5 3 17 30 25 60 9 30 21 57 26 60 6 3 10 18 10 33 0 15 9
44 20 65 11 20 20 47 20 60 0 13 4 27 8 33 5 5 14 23 20 39 16 45 62 167 71
190 5 11 19 47 31 80 13 33 40 96 61 140 20 44 49 110 63 147 14 36 32 79 40
95 8 15 24 48 34 73 11 25 27 61 36 82 9 20 16 40 16 45 0 4 18 46 41 93 23
47 48 98 55 113 8 16 14 33 14 38 0 11 23 65 80 184 20 44 45 100 55 125 9 25
34 82 56 128 21 45 39 89 39 97 0 13 10 37 56 140 7 17 16 44 20 60 4 17 15
46 26 65 10 19 18 39 18 45 0 6 16 49 35 95 19 46 35 93 35 103 0 10 9 35 20
55 10 20 29 64 40 97 12 33 28 73 36 88 8 16 14 34 14 40 1 7 9 30 20 52 11
22 19 44 20 48 0 5 7 23 15 40 8 18 21 50 29 72 7 22 24 65 36 95 12 30 25 66
30 80 4 14 29 70 55 125 26 55 58 125 72 155 14 30 45 97 69 148 24 52 44 95
44 98 0 2 34 73 75 159 41 85 75 157 75 160 0 5 11 29 113 250 30 66 67 147
82 180 14 33 32 74 40 90 7 17 26 57 40 90 40 87 60 131 99 217 20 43 36 83
36 89 0 6 9 28 19 48 11 20 50 106 87 191 37 85 89 201 115 258 27 57 49 105
49 107 0 3 62 138 120 260 68 142 126 269 153 330 54 125 107 254 107 262 0 4
10 28 22 53 12 25 27 59 34 75 7 17 107 222 223 458 116 235 211 430 211 433
0 3 9 26 21 52 32 72 45 101 74 172 39 94 41 99 188 400 73 151 168 363 211
470 79 201 111 270 194 425 26 50 61 115 77 145 36 69 59 96 110 128 54 34 78
40 172 41 68 1 88 -3 118 -21z m-30 -1828 c25 -12 63 -43 85 -69 119 -141 149
-178 187 -230 60 -80 156 -221 170 -251 11 -22 50 -81 104 -161 9 -13 38 -58
64 -99 26 -41 56 -87 66 -102 10 -15 19 -31 19 -36 0 -5 8 -20 18 -33 11 -13
34 -51 52 -84 38 -69 53 -94 86 -150 13 -22 29 -51 35 -65 6 -14 15 -32 20
-40 10 -16 24 -46 33 -70 3 -8 10 -22 14 -30 9 -15 41 -85 72 -155 10 -22 34
-74 54 -115 19 -41 40 -86 46 -100 5 -14 14 -32 19 -40 5 -8 14 -26 20 -40 6
-14 15 -32 19 -40 11 -18 49 -99 56 -120 3 -8 10 -22 16 -30 5 -8 14 -26 20
-40 5 -14 14 -32 20 -40 5 -8 14 -26 20 -40 5 -14 14 -32 19 -40 11 -19 77
-157 91 -190 5 -14 14 -32 20 -40 5 -8 14 -26 20 -40 5 -14 14 -32 20 -40 5
-8 15 -26 20 -40 6 -14 24 -50 40 -80 17 -30 30 -59 30 -65 0 -6 9 -18 20 -28
11 -9 20 -24 20 -32 0 -9 8 -28 18 -43 28 -43 35 -55 147 -282 59 -118 111
-222 115 -230 5 -8 39 -76 75 -150 37 -74 71 -142 76 -150 5 -8 14 -26 19 -40
6 -14 14 -32 20 -40 5 -8 34 -66 65 -127 30 -62 59 -113 63 -113 12 0 82 -64
82 -76 0 -6 9 -21 19 -33 39 -44 39 -217 1 -291 -20 -38 -85 -104 -169 -168
-30 -23 -83 -69 -119 -103 -36 -33 -79 -67 -96 -76 -17 -9 -49 -31 -72 -49
-23 -19 -44 -34 -49 -34 -4 0 -30 -18 -57 -40 -28 -22 -55 -40 -60 -40 -6 0
-27 -13 -47 -28 -34 -27 -118 -79 -179 -111 -15 -8 -29 -18 -30 -23 -2 -5 -20
-17 -40 -27 -21 -10 -86 -44 -147 -76 -60 -32 -158 -82 -218 -113 -59 -30
-110 -58 -113 -63 -3 -5 -13 -9 -23 -9 -10 0 -26 -9 -36 -20 -10 -11 -21 -20
-25 -20 -4 0 -44 -21 -89 -47 -45 -27 -96 -56 -114 -66 -18 -9 -59 -33 -92
-52 -33 -20 -76 -43 -95 -53 -19 -9 -37 -19 -40 -22 -6 -7 -73 -46 -175 -100
-44 -23 -87 -48 -95 -54 -8 -7 -26 -18 -40 -24 -14 -7 -56 -33 -95 -57 -38
-25 -81 -50 -95 -55 -13 -6 -27 -15 -30 -19 -3 -4 -30 -22 -60 -39 -72 -42
-86 -51 -140 -87 -25 -16 -57 -37 -71 -45 -40 -23 -121 -76 -149 -98 -14 -10
-43 -28 -66 -40 -22 -11 -46 -28 -53 -36 -8 -9 -22 -16 -32 -16 -10 0 -20 -4
-23 -8 -6 -10 -162 -102 -172 -102 -3 0 -17 -9 -31 -20 -14 -11 -33 -20 -43
-20 -9 0 -25 -9 -35 -20 -10 -11 -25 -20 -33 -20 -9 0 -23 -6 -31 -14 -14 -11
-101 -60 -226 -126 -16 -8 -41 -23 -55 -33 -13 -9 -32 -17 -41 -17 -9 0 -24
-9 -34 -20 -10 -11 -29 -20 -42 -20 -13 0 -26 -6 -29 -14 -3 -8 -17 -17 -32
-21 -15 -4 -34 -12 -42 -20 -8 -7 -26 -16 -40 -20 -14 -4 -27 -11 -30 -14 -3
-4 -27 -18 -55 -32 -112 -57 -211 -112 -226 -125 -8 -8 -22 -14 -31 -14 -8 0
-23 -9 -33 -20 -10 -11 -23 -20 -29 -20 -6 0 -35 -15 -63 -34 -29 -19 -61 -37
-72 -41 -10 -3 -25 -12 -31 -20 -7 -8 -21 -15 -31 -15 -11 0 -28 -9 -38 -19
-10 -10 -29 -22 -40 -26 -12 -4 -34 -25 -48 -48 -34 -53 -113 -207 -113 -219
0 -6 -9 -21 -20 -35 -11 -14 -20 -34 -20 -43 0 -10 -6 -23 -14 -29 -8 -7 -18
-25 -21 -41 -3 -16 -13 -34 -21 -41 -8 -6 -14 -21 -14 -34 0 -12 -9 -30 -20
-40 -11 -10 -20 -28 -20 -40 0 -12 -9 -30 -20 -40 -11 -10 -20 -28 -20 -40 0
-13 -6 -28 -14 -34 -8 -7 -18 -25 -21 -41 -3 -16 -12 -34 -20 -40 -7 -6 -16
-29 -20 -50 -4 -21 -13 -44 -21 -51 -8 -6 -14 -22 -14 -36 0 -13 -9 -36 -19
-51 -11 -15 -22 -43 -25 -63 -4 -21 -13 -42 -21 -49 -8 -7 -15 -25 -15 -40 0
-15 -7 -33 -15 -40 -8 -7 -18 -30 -21 -51 -4 -21 -13 -44 -20 -50 -8 -6 -14
-20 -14 -32 0 -11 -9 -34 -19 -51 -11 -17 -22 -48 -26 -68 -4 -21 -13 -42 -21
-49 -8 -6 -14 -20 -14 -30 0 -11 -9 -36 -20 -56 -11 -21 -20 -50 -20 -66 0
-15 -7 -30 -15 -33 -8 -3 -17 -21 -21 -39 -3 -19 -12 -36 -20 -39 -8 -3 -14
-16 -14 -29 0 -14 -9 -36 -20 -50 -11 -14 -20 -30 -20 -37 0 -6 -8 -28 -19
-48 -10 -20 -29 -59 -41 -87 -12 -27 -31 -67 -41 -87 -11 -20 -19 -43 -19 -51
0 -8 -7 -20 -15 -27 -8 -7 -15 -20 -15 -30 0 -9 -9 -29 -20 -43 -11 -14 -20
-34 -20 -45 0 -10 -9 -27 -20 -37 -11 -10 -20 -27 -20 -37 0 -11 -9 -36 -19
-56 -53 -103 -61 -121 -61 -135 0 -8 -7 -20 -15 -27 -8 -7 -15 -23 -15 -35 0
-12 -9 -34 -20 -48 -11 -14 -20 -32 -20 -40 0 -7 -9 -24 -20 -37 -11 -13 -20
-30 -20 -37 0 -8 -9 -26 -20 -40 -11 -14 -20 -36 -20 -48 0 -12 -6 -28 -14
-34 -8 -6 -19 -31 -25 -56 -6 -24 -15 -47 -21 -50 -5 -3 -10 -17 -10 -31 0
-13 -9 -32 -20 -41 -11 -10 -20 -27 -20 -39 0 -11 -9 -29 -20 -39 -13 -12 -20
-31 -20 -55 0 -23 -8 -46 -20 -60 -11 -13 -20 -32 -20 -43 0 -11 -7 -28 -16
-38 -9 -10 -18 -36 -21 -58 -3 -22 -12 -46 -19 -52 -8 -6 -14 -21 -14 -33 0
-11 -9 -34 -20 -51 -11 -16 -20 -42 -20 -56 0 -15 -9 -38 -20 -52 -11 -14 -20
-34 -20 -44 0 -10 -9 -35 -20 -56 -11 -20 -20 -44 -20 -54 0 -9 -7 -24 -16
-34 -9 -10 -18 -36 -21 -58 -3 -22 -12 -46 -19 -52 -8 -6 -14 -21 -14 -34 0
-12 -9 -32 -20 -45 -12 -14 -20 -37 -20 -60 0 -24 -7 -43 -20 -55 -11 -10 -20
-27 -20 -38 0 -11 -7 -28 -16 -38 -9 -10 -18 -37 -21 -61 -3 -24 -11 -48 -18
-53 -7 -6 -18 -30 -24 -52 -6 -23 -16 -45 -21 -48 -6 -3 -10 -21 -10 -39 0
-20 -8 -40 -20 -51 -11 -10 -20 -28 -20 -39 0 -12 -9 -38 -20 -59 -11 -20 -20
-44 -20 -53 0 -9 -9 -27 -20 -41 -11 -14 -20 -40 -20 -58 0 -18 -6 -38 -14
-44 -8 -7 -17 -27 -20 -45 -4 -19 -13 -39 -21 -46 -8 -7 -15 -29 -15 -50 0
-24 -7 -43 -20 -55 -11 -10 -20 -28 -20 -39 0 -12 -9 -34 -20 -51 -11 -16 -20
-44 -20 -61 0 -17 -7 -37 -15 -44 -8 -7 -19 -26 -24 -44 -21 -66 -48 -135 -58
-148 -6 -7 -14 -29 -18 -48 -4 -19 -13 -45 -21 -57 -8 -12 -14 -30 -14 -39 0
-9 -9 -27 -20 -41 -11 -15 -20 -41 -20 -60 0 -20 -9 -46 -20 -60 -11 -14 -20
-34 -20 -43 0 -10 -7 -23 -15 -30 -7 -6 -17 -31 -21 -55 -3 -25 -12 -50 -20
-56 -8 -6 -14 -21 -14 -33 0 -11 -9 -34 -20 -51 -11 -16 -20 -42 -20 -56 0
-15 -9 -38 -20 -52 -11 -14 -20 -36 -20 -49 0 -12 -9 -36 -20 -53 -11 -16 -20
-40 -20 -51 0 -12 -7 -27 -15 -34 -7 -6 -17 -31 -21 -55 -3 -25 -12 -50 -20
-56 -8 -6 -14 -21 -14 -34 0 -12 -9 -32 -20 -45 -12 -13 -20 -37 -20 -57 0
-20 -9 -46 -20 -60 -11 -14 -20 -32 -20 -39 0 -7 -9 -28 -20 -46 -11 -18 -20
-48 -20 -66 0 -20 -6 -35 -15 -38 -8 -4 -15 -14 -15 -23 0 -9 -9 -34 -20 -56
-11 -22 -20 -51 -20 -66 0 -18 -11 -37 -36 -59 -53 -46 -80 -56 -101 -39 -10
9 -30 20 -44 26 -21 9 -28 20 -33 55 -3 24 -2 59 3 78 11 38 70 190 101 258
11 23 20 49 20 57 0 9 4 23 10 33 25 45 60 131 60 146 0 10 18 55 40 102 22
47 40 92 40 101 0 15 21 67 56 136 8 16 14 35 14 43 0 7 11 37 24 66 13 29 32
73 41 98 9 25 25 64 36 88 10 23 19 49 19 57 0 8 16 48 35 91 19 42 35 84 35
93 0 9 18 53 40 99 22 46 40 90 40 99 0 9 9 34 19 57 10 23 26 59 34 81 8 22
27 68 41 101 14 34 26 67 26 73 0 6 4 19 9 29 22 40 61 136 61 149 0 8 18 52
40 99 22 47 40 94 40 106 0 11 6 32 14 46 36 67 56 114 56 129 0 9 9 34 19 57
10 23 26 61 36 86 9 25 28 69 41 98 13 29 24 59 24 67 0 7 16 48 35 91 19 42
35 84 35 94 0 10 18 56 40 103 22 46 40 92 40 102 0 9 7 29 14 43 25 45 56
124 56 141 0 9 9 30 19 47 10 17 22 45 26 62 3 18 11 34 16 37 5 4 9 13 9 22
0 8 11 37 25 65 14 27 25 58 25 69 0 11 4 27 9 37 32 57 61 126 61 143 0 11 9
37 20 59 11 22 20 50 20 62 0 13 9 38 20 56 11 18 20 44 20 58 0 13 9 42 20
64 11 22 20 49 20 60 0 12 6 33 14 48 7 15 16 44 20 64 4 20 13 50 21 65 8 15
15 37 15 48 0 11 9 38 20 60 11 22 19 50 20 61 0 12 9 41 20 65 11 24 20 54
20 67 0 12 6 33 14 45 8 12 17 38 21 57 3 19 12 49 20 65 7 17 17 48 23 70 5
22 15 56 22 75 12 36 25 73 41 123 5 15 14 42 20 60 6 17 18 57 26 87 8 30 19
59 24 64 5 6 9 19 9 30 0 12 11 44 25 71 13 28 25 55 25 61 0 7 7 25 15 40 8
16 15 36 15 44 0 8 9 29 20 45 11 17 20 38 20 48 0 9 9 34 20 54 11 21 20 42
20 48 0 13 76 202 95 237 8 14 15 33 15 42 0 8 9 35 19 58 11 24 29 64 40 89
12 25 21 56 21 70 0 14 5 30 10 35 6 6 17 35 25 65 8 29 17 64 21 76 9 33 -17
30 -101 -12 -71 -35 -140 -44 -204 -26 -54 15 -79 126 -42 187 20 33 33 44
111 94 112 72 228 151 257 175 18 15 50 35 70 45 35 17 113 97 113 117 1 4 9
26 20 48 11 22 19 48 20 58 0 10 9 35 20 57 11 22 20 50 20 64 0 14 4 27 9 31
5 3 15 22 21 43 7 20 20 56 31 79 10 24 19 52 19 62 0 11 4 23 10 26 5 3 14
25 20 48 6 23 17 56 25 72 8 17 24 57 36 90 12 33 37 96 56 141 18 45 33 84
33 89 0 4 6 21 14 38 8 18 26 61 41 97 15 36 33 79 41 95 7 17 18 41 24 55 6
14 20 41 33 61 66 109 92 150 128 204 21 33 44 71 51 85 7 14 24 40 38 59 14
19 34 49 45 66 81 130 116 174 158 197 95 53 201 59 297 17 90 -40 130 -101
157 -241 6 -32 -24 -156 -44 -179 -7 -8 -13 -22 -13 -31 0 -8 -9 -27 -20 -41
-11 -14 -20 -33 -20 -42 0 -9 -9 -28 -20 -42 -11 -14 -20 -34 -20 -43 0 -10
-7 -23 -15 -30 -8 -7 -15 -19 -15 -27 0 -9 -8 -32 -19 -52 -10 -20 -33 -67
-51 -106 -51 -110 -91 -189 -104 -205 -7 -8 -18 -26 -25 -40 -6 -14 -23 -43
-36 -65 -34 -58 -73 -137 -80 -162 -8 -30 5 -29 63 3 47 26 66 39 195 134 38
28 80 57 95 65 15 9 61 40 102 70 41 30 105 75 142 101 38 25 70 50 74 55 3 5
31 26 62 45 31 20 74 51 94 68 41 35 163 124 222 162 240 155 662 415 790 485
10 6 35 20 55 31 20 12 54 31 76 43 70 39 139 78 180 102 22 12 51 28 65 35
14 7 59 33 100 57 41 24 104 60 140 79 65 36 146 87 273 175 37 26 98 68 135
93 37 26 150 100 252 164 102 65 219 141 260 169 73 50 114 77 307 203 102 67
117 93 83 138 -11 14 -32 45 -47 70 -14 25 -34 54 -44 65 -9 11 -26 39 -38 63
-12 23 -25 42 -29 42 -4 0 -20 23 -36 51 -16 29 -37 60 -47 70 -11 11 -19 24
-19 30 0 7 -15 30 -33 53 -19 23 -37 50 -41 61 -4 11 -21 38 -37 60 -33 44
-86 124 -109 165 -8 14 -26 41 -40 60 -14 19 -32 46 -40 61 -13 24 -51 89
-110 190 -28 49 -78 124 -94 141 -8 9 -25 36 -37 60 -12 24 -28 50 -36 58 -16
17 -71 100 -92 139 -7 14 -29 45 -47 68 -19 23 -34 46 -34 51 0 8 -72 123 -98
157 -4 6 -21 33 -36 60 -16 28 -32 52 -36 55 -3 3 -21 31 -39 63 -18 31 -36
57 -41 57 -4 0 -11 11 -14 24 -6 23 -56 105 -96 158 -11 14 -20 29 -20 33 0 3
-25 48 -55 100 -30 51 -55 97 -55 102 0 6 -9 18 -20 28 -11 10 -20 26 -20 35
0 10 -9 29 -20 43 -11 14 -20 28 -20 32 0 10 -73 133 -152 255 -19 30 -53 84
-74 119 -22 35 -58 85 -81 112 -23 26 -60 74 -81 107 -22 32 -47 64 -56 71 -9
7 -16 18 -16 23 0 9 -39 68 -51 78 -4 3 -21 31 -39 63 -17 31 -36 57 -40 57
-5 0 -12 10 -16 23 -4 12 -18 38 -31 57 -13 19 -33 66 -44 104 -19 62 -20 76
-9 126 19 89 57 149 120 192 65 44 81 47 182 43 55 -2 91 -10 123 -25z"/>
</g>
</svg>
